<svg height="512" viewBox="0 0 301.245 303.226" width="512" xmlns="http://www.w3.org/2000/svg"><g fill="#dcb089"><path d="m205.302 128.496 4.699-15.032s8.268-2.295 12.628 6.598-7.05 27.166-16.893 28.702c-2.729-6.957-.434-20.268-.434-20.268z"/><path d="m95.346 128.496-4.699-15.032s-8.268-2.295-12.628 6.598 7.05 27.166 16.893 28.702c2.729-6.957.434-20.268.434-20.268z"/><path d="m109.821 168.813h81.546v85.575h-81.546z"/></g><g><path d="m109.821 168.813v13.799s15.975 36.47 48.199 36.47c15.466 0 26.275-6.074 33.346-12.392v-37.878h-81.545z" fill="#bc8866"/></g><path d="m209.672 128.537c.021-.628.032-1.256.032-1.884 0-39.038 11.392-83.083-57.908-83.73-.319-.006-1.548-.015-1.551-.015 0 0-1.233.009-1.552.015-69.299.647-57.908 44.692-57.908 83.73 0 .628.011 1.256.031 1.884s-.07 29.052 4.222 36.315 29.712 40.456 53.813 40.456c.022-.022 2.806-.023 2.83 0 24.1 0 49.521-33.193 53.813-40.456s4.222-36.315 4.222-36.315z" fill="#dcb089"/><path d="m301.245 271.893c0-29.333-27.333-40-40.333-42.667s-51-12.667-69.5-16.333c-10.767 17.591-36.276 24.693-40.789 25.831-4.512-1.138-30.022-8.24-40.789-25.831-18.5 3.667-56.5 13.667-69.5 16.333-13.001 2.667-40.334 13.334-40.334 42.667 20.667 9.333 70.212 31.333 150.606 31.333.006-.006.01-.011.016-.017.006.006.01.011.016.017 80.394 0 129.94-22 150.607-31.333z" fill="#a5ccf2"/><g><path d="m260.911 229.226c-13-2.667-51-12.667-69.5-16.333-10.767 17.591-36.276 24.693-40.789 25.831-4.512-1.138-30.022-8.24-40.789-25.831-18.5 3.667-56.5 13.667-69.5 16.333-13 2.667-40.333 13.334-40.333 42.667 3.751 1.694 8.468 3.809 14.134 6.13.259-9.863 2.419-15.235 2.419-15.235 1.514-3.981 4.159-7.4 8.024-10.447 7.272-5.732 16.206-7.894 18.771-8.42 5.955-1.221 16.247-3.747 28.165-6.671 10.829-2.657 22.729-5.577 32.274-7.725 14.503 15.47 36.069 21.954 43.168 23.744 1.204.303 2.435.455 3.667.455s2.464-.152 3.667-.455c22.205-5.599 35.626-15.937 43.049-23.771 9.564 2.15 21.519 5.083 32.393 7.752 11.918 2.924 22.21 5.45 28.165 6.671 2.565.526 11.499 2.688 18.771 8.42 3.866 3.047 6.51 6.467 8.024 10.447 0 0 1.504 7.069.942 15.835 6.328-2.557 11.539-4.891 15.611-6.73.001-29.333-27.333-40-40.333-42.667z" fill="#fff"/></g><path d="" fill="none" stroke="#dcb089" stroke-miterlimit="10"/><path d="m86.656 113.198c2.435.032 3.795 0 3.795 0s2.988 2.817 3.655 11.329c.698 2.231 3.167 3.012 4 .012s.25-14.083 3.75-18.333c1.5-3.25-7-25 2.5-35.5 2.25-3-6.75-10-12.25-4.75s-10.4 20.734-5.45 47.242z" fill="#a3928b"/><path d="m213.796 113.198c-2.435.032-3.795 0-3.795 0s-2.988 2.817-3.655 11.329c-.698 2.231-3.167 3.012-4 .012s-.25-14.083-3.75-18.333c-1.5-3.25 7-25-2.5-35.5-2.25-3 6.75-10 12.25-4.75s10.4 20.734 5.45 47.242z" fill="#a3928b"/><path d="m210.696 44.256c-3.137-7.518-7.47-7-10.137-5.333-1.667-2.667-1.214-12.317-4.485-15.667-6.348-6.5-14.714-.708-16.181-6.333-2-7.667-7.333-9-14.667-6.667-3.667-1.667-3-12-8.667-10-5.638 1.99-3.759 3.648-6.167 3.665-2.408-.017-.53-1.675-6.168-3.665-5.667-2-5 8.333-8.667 10-7.333-2.333-12.667-1-14.667 6.667-1.468 5.626-9.833-.167-16.182 6.333-3.271 3.349-2.818 13-4.485 15.667-2.667-1.667-7-2.185-10.137 5.333-3.697 9.912-.86 25.578-.86 25.578 4.061 1.903 8.748 2.763 16.748 0s21.871-8.763 44.269-4.096c.01-.011.018-.021.027-.032.01.011.018.021.027.032 22.398-4.667 36.269 1.333 44.269 4.096s12.688 1.903 16.748 0c-.012-.056-.031-.107-.043-.162l.285.162c.001 0 2.837-15.666-.86-25.578z" fill="#240703"/></svg>